<svg id="Layer_1" data-name="Layer 1" xmlns="http://www.w3.org/2000/svg" xmlns:xlink="http://www.w3.org/1999/xlink" viewBox="0 0 5000 3080"><defs><style>.cls-1{fill:#231f20;}.cls-2{fill:url(#linear-gradient);}.cls-3{fill:url(#linear-gradient-2);}.cls-4{fill:url(#linear-gradient-3);}.cls-5{fill:url(#linear-gradient-4);}.cls-6{fill:url(#linear-gradient-5);}.cls-7{fill:url(#linear-gradient-6);}.cls-8{fill:url(#linear-gradient-7);}.cls-9{fill:url(#linear-gradient-8);}.cls-10{fill:url(#linear-gradient-9);}.cls-11{fill:url(#linear-gradient-10);}.cls-12{fill:url(#linear-gradient-11);}</style><linearGradient id="linear-gradient" x1="1789.13" y1="1486.6" x2="2279.6" y2="1486.6" gradientUnits="userSpaceOnUse"><stop offset="0" stop-color="#593f92"/><stop offset="1" stop-color="#5a3189"/></linearGradient><linearGradient id="linear-gradient-2" x1="2856.92" y1="1643.5" x2="3327.87" y2="1643.5" xlink:href="#linear-gradient"/><linearGradient id="linear-gradient-3" x1="3865.04" y1="1569.68" x2="4333.77" y2="1569.68" xlink:href="#linear-gradient"/><linearGradient id="linear-gradient-4" x1="3359.5" y1="1569.96" x2="3830.07" y2="1569.96" xlink:href="#linear-gradient"/><linearGradient id="linear-gradient-5" x1="2455.91" y1="1553.11" x2="2821.68" y2="1553.11" xlink:href="#linear-gradient"/><linearGradient id="linear-gradient-6" x1="4365.99" y1="1557.14" x2="4657.09" y2="1557.14" xlink:href="#linear-gradient"/><linearGradient id="linear-gradient-7" x1="2312.95" y1="1569.35" x2="2421.86" y2="1569.35" xlink:href="#linear-gradient"/><linearGradient id="linear-gradient-8" x1="2314.91" y1="1222.65" x2="2418.2" y2="1222.65" xlink:href="#linear-gradient"/><linearGradient id="linear-gradient-9" x1="475.55" y1="1568.93" x2="1601.43" y2="1568.93" gradientUnits="userSpaceOnUse"><stop offset="0" stop-color="#5f449b"/><stop offset="1" stop-color="#5a3189"/></linearGradient><linearGradient id="linear-gradient-10" x1="943.83" y1="1804.44" x2="1188.08" y2="1804.44" xlink:href="#linear-gradient-9"/><linearGradient id="linear-gradient-11" x1="970.38" y1="1381.46" x2="1150.12" y2="1381.46" xlink:href="#linear-gradient-9"/></defs><rect class="cls-1" width="5000" height="3080"/><path class="cls-2" d="M1978.16,1170c36.22,0,72.5-1.4,108.65.25,139.9,6.4,228.15,140.85,176.33,270.89-12.36,31-14.81,55.62-.91,87.89,31.12,72.27,20.15,142.74-30.72,203.56-55.27,66.08-129.52,79.06-210.59,68.23-1.63-.21-3.57-.18-4.79-1.07-84.17-61.13-155.29-135.91-219.32-217-15.73-19.94-2.68-46.08,18.87-59.64,25.37-16,51.16-10.62,72.21,10.07,43.43,42.67,85.69,86.54,129.12,129.22,41.13,40.42,89.83,43.17,125.66,8.3,37.32-36.32,37.95-84.19,1.69-128.34-43.31-52.72-43.27-58.35,1.19-112.1,23.61-28.55,34.27-59,18.74-95.82-15.18-36-43.2-54.39-79.79-57.16-41-3.11-82.27-2.09-123.42-1.57-20.49.26-48.09-8-56.92,17.16-9.77,27.8-10.83,59.08,12.83,83.47,44.69,46.06,90,91.54,135,137.26,11.61,11.79,23.31,23.63,26.56,40.73,4.41,23.23-2.45,42.43-22.24,56-20.71,14.17-42.31,11.64-59-4.57q-97.5-94.5-192.57-191.47c-21.76-22.26-14.23-53-14.59-80.51-2.36-181.54-.32-164.56,163.35-164.21,8.23,0,16.47,0,24.7,0Z"/><path class="cls-3" d="M3324.54,1388.39c-.32-15.7-1-51.42-23-64.57-15.87-9.47-42.27-6.92-58.29,5.82-12.53,10-11,20-22.39,26.25-16.51,9-37.38-3.79-49.86-7.39-89.48-25.81-174.61-16.5-241.95,53.56-66.24,69-91.81,150.19-55.69,244.77,35.13,91.87,99.64,143.89,198,154.64,43.55,4.76,84.28-7.08,134.32-20.06-24.23,54.4-61.29,75-107.52,81.6-35.32,5-61.34,19.43-56.83,59.46s34,47.67,68.82,46.28c104.4-4.26,202.21-88.1,210.83-200.18C3328.57,1669.22,3330.11,1658.55,3324.54,1388.39Zm-230.75,306c-68.72.5-125.95-55.25-126.74-123.57-.89-69.77,52.62-125.16,122.48-126.9,68.92-1.68,125.36,53.32,126.35,123.18C3216.87,1637.17,3162.52,1693.81,3093.79,1694.35Z"/><path class="cls-4" d="M4037.74,1622.85c39.44-.39,78.93-.15,118.42-.15v-.19c34.54,0,69.07.34,103.61,0,62.83-.7,81-22.7,71.74-86.42-15-103.11-91.41-181.59-192.79-198-104.3-16.85-203.1,33.54-249.52,127.34-47.42,95.72-23.14,217.86,56.28,283.61,85.87,71,210.83,74.37,297.14,7.48,29.09-22.49,53.67-50,28.35-87.55-25.57-37.8-59-25.52-90.48-4.46-10.9,7.24-21.95,14.72-33.89,19.82-42.91,18.29-83.79,12.34-121.44-14.07-10.26-7.18-23.74-15.71-19.87-31.17C4009.3,1623,4024.66,1623,4037.74,1622.85Zm-37.51-118.57c-2.82-10.15,6-17.93,12.74-25.22,42.81-46.33,131.85-45.68,172.72,1.24,6.49,7.43,14.57,14.62,11.15,25.57-3.91,12.34-15.46,10.06-24.87,10.21-24.63.34-49.2.09-73.78.09v-.29c-22.94,0-45.93.49-68.82-.2C4018.52,1515.38,4004.2,1518.7,4000.23,1504.28Z"/><path class="cls-5" d="M3520.46,1622.55q64.14-.06,128.18,0c34.53,0,69,.34,103.55-.1,67.44-.9,87.31-26.22,74-93.45-26.71-134.28-148.6-215.24-283-188C3424,1365.15,3340,1489.72,3363.44,1607.69c27,136.06,145.87,217.72,280.54,191.7,39.24-7.58,74.67-25.12,105.14-51.23,26.66-22.84,39.24-51.08,15-81.9-22.19-28.2-51-25.27-79.27-7-12.39,8-24.18,17.29-37.31,23.88-46.18,23.19-109.26,12.19-141.12-23.43-6.64-7.39-14.91-14.32-10.75-25.47S3510.45,1622.6,3520.46,1622.55Zm-13.58-142c43-46.92,130.46-48.26,173.42-2.43,6.79,7.18,14.86,14.47,11.59,25.37-3.37,11.4-14.12,12.58-24.08,12.68-26.26.3-52.47.1-78.73.15-22.94.05-45.93.25-68.87,0-9.52-.1-20.86,1.89-24.68-10.5C3492.06,1494.67,3500.19,1487.93,3506.88,1480.6Z"/><path class="cls-6" d="M2457.11,1566.87c1.62-59.41-3.69-73.7.38-167.77,2.11-49,5.36-81.93,26.2-91.61,14.06-6.53,37.7-3.19,49,9.62,9.15,10.41,5.48,21.78,14.89,28.21,11.54,7.89,29.48-1.53,35.18-2.71,142.32-29.52,238.32,49.44,238.88,196,.26,65.79-.23,131.59.06,197.39.16,38-12.5,66.54-55.29,65.24-40.34-1.23-50.14-29.77-49.72-65.23.72-60.85.52-121.72.26-182.58-.06-14.72.16-29.91-3.21-44.06-9.92-41.56-35.71-67.84-80-64.83-44.93,3-67.21,33.57-68.72,76.09-2.28,64.08-.78,128.28-1,192.43,0,13.14.85,26.57-1.5,39.35-5.23,28.35-19.55,49.8-51.66,49.59-16.37-.12-29.11-4.78-38-13.31-12.7-12.24-14.1-29.68-14.73-39.32C2454,1686.15,2456.92,1573.85,2457.11,1566.87Z"/><path class="cls-7" d="M4367.06,1573.12c-1.8-67.77-1.05-124.62.23-167.61,1.45-48.4,3.39-72.66,21.68-84.9,22.58-15.1,65.31-8.71,79.57,12.24,7.14,10.48,5.84,22.68,15.3,26.18,4.09,1.52,8.59,2,26.69-6.32,28.87-13.26,59.51-18.9,91-17.75,32.16,1.18,53.73,17.83,55.47,50.92,1.6,30.5-16.92,49.45-45.86,55.3-22.58,4.56-45.53,7-65.85,18.73-41.48,23.93-65.19,58.85-65.58,107.95-.44,55.87-.35,111.75-1.88,167.59-1,36.12-13.15,66.91-55.91,66.51-16.78-.16-28.71-4.5-37.08-11.87-17.84-15.73-17.93-42.81-17.81-59.22C4367.36,1684.69,4367.1,1633.17,4367.06,1573.12Z"/><path class="cls-8" d="M2314,1399.78c.72-31.44,9.25-60.5,48.63-62s57.74,22.48,58.12,58.47c1.24,116.85,1.82,233.74-.06,350.57-.53,32.85-19.7,56.18-57.15,54.06s-50.22-26.57-50.4-60.29c-.29-56-.08-112-.08-167.95C2313.21,1572.63,2312.63,1457.37,2314,1399.78Z"/><path class="cls-9" d="M2418.2,1223.74c-3.08,31.09-18.49,52.42-52.61,50.36-32-1.93-52.05-21.07-50.61-54.26,1.32-30.34,20.37-48.12,50.82-48.75C2399.42,1170.39,2416.27,1189.56,2418.2,1223.74Z"/><path class="cls-10" d="M1600.88,1089.94c-.55-79.57-36.47-118.12-112.77-118.37q-454.26-1.56-908.52-.19c-59.31.14-90.88,29.48-99.35,88.29-3.52,24.33-4.51,49.2-4.56,73.83q-.3,348.35.2,696.8c.15,79-.89,158.21,3.12,237.09,3.47,67.14,37.81,98.35,104.85,98.55q446.82,1.48,893.65.54c91.72-.29,123.23-35.13,123.43-127.68.39-156.48.1-313,.2-469.47C1601.18,1409.53,1601.92,1249.74,1600.88,1089.94ZM1338,1958.33c-47.17,31.81-99.84,50.14-156.87,53.66-22.94,1.44-46.08.25-69.12.25-97.61,4.06-188.78-20.71-276-63.22-27.6-13.53-40.43-33-44.74-64.66-21.9-161.83-61.89-319.74-108.86-476-4.21-14-8.08-32.06-18.38-39.54-48.76-35.37-24.93-65.15,2.67-97.81,137-162.42,356-192.24,527.15-128.33,163.11,61,228.91,219.7,159.44,377.71-14.81,33.74-6.29,52.57,14.87,77.64C1476,1725.9,1463.13,1873.9,1338,1958.33Z"/><path class="cls-11" d="M1021.72,1849.67c-77.63,1.73-87.86-7.06-70.85-53.05,5.58-15.09,14.31-25.41,30.46-28.86,62.26-13.33,123.85-12.17,184.46,8.6,9.2,3.15,20.43,6.7,22,17.35,2.19,14.36-10.81,18.77-21,23.55A347.74,347.74,0,0,1,1021.72,1849.67Z"/><path class="cls-12" d="M1143.3,1457.63a32.11,32.11,0,0,1-13.54,10.16c-6.43,2.47-11.7,1.92-16.93,1.68-10.84-.48-6.35,1.08-33.83,2.54-20.14,1.08-30.19,1.61-35.56.87-20.83-3-35.41-13.38-41.45-17.79-11.2-8.16-34.51-25.15-31.32-38.92,3-12.87,27.94-17.31,59.9-18.77L1010,1345.49a12,12,0,1,1,16-6.33l22.82,57.69c3.67,0,7.36-.1,11.13-.1l21.74-88.93a11.89,11.89,0,0,1-1.67-6.11,12,12,0,1,1,18.34,10.24l-20.72,84.78c3,0,5.95,0,8.9,0,11.19,0,29.94.53,46,12.76,4.92,3.74,16.64,12.63,17.51,27C1150.76,1447.77,1144.33,1456.29,1143.3,1457.63Z"/></svg>