<?xml version="1.0" encoding="utf-8"?>
<!-- Generator: Adobe Illustrator 25.0.0, SVG Export Plug-In . SVG Version: 6.00 Build 0)  -->
<svg version="1.1" id="Layer_1" xmlns="http://www.w3.org/2000/svg" xmlns:xlink="http://www.w3.org/1999/xlink" x="0px" y="0px"
	 viewBox="0 0 512 512" style="enable-background:new 0 0 512 512;" xml:space="preserve">
<style type="text/css">
	.st0{fill:url(#SVGID_1_);stroke:#231F20;stroke-miterlimit:10;}
	.st1{fill:url(#SVGID_2_);stroke:#231F20;stroke-miterlimit:10;}
	.st2{fill:url(#SVGID_3_);stroke:#231F20;stroke-miterlimit:10;}
</style>
<g>
	<linearGradient id="SVGID_1_" gradientUnits="userSpaceOnUse" x1="-1.818989e-12" y1="256.111" x2="512.4384" y2="256.111">
		<stop  offset="2.066799e-04" style="stop-color:#663693"/>
		<stop  offset="1" style="stop-color:#5A3188"/>
	</linearGradient>
	<path class="st0" d="M512.2,51c-0.2-34.1-16.6-50.6-51.3-50.7C323-0.1,185.2-0.1,47.4,0.2C20.4,0.3,6,12.9,2.1,38
		C0.5,48.5,0.1,59.1,0.1,69.7C0,169.1,0,268.6,0.1,368c0.1,33.8-0.4,67.7,1.4,101.5c1.6,28.7,17.2,42.1,47.7,42.2
		c135.6,0.4,271.2,0.7,406.7,0.2c41.7-0.1,56.1-15,56.2-54.7c0.2-67,0-134,0.1-201C512.3,187.9,512.7,119.4,512.2,51z M392.6,422.9
		c-21.5,13.6-45.4,21.5-71.4,23c-10.4,0.6-21,0.1-31.5,0.1c-44.4,1.7-85.9-8.9-125.6-27.1c-12.6-5.8-18.4-14.2-20.4-27.7
		c-10-69.3-28.2-136.9-49.5-203.8c-1.9-6-3.7-13.7-8.4-16.9c-22.2-15.1-11.3-27.9,1.2-41.9c62.4-69.5,162-82.3,239.9-55
		c74.2,26.1,104.2,94.1,72.6,161.7c-6.7,14.4-2.9,22.5,6.8,33.2C455.4,323.3,449.5,386.7,392.6,422.9z"/>
	<linearGradient id="SVGID_2_" gradientUnits="userSpaceOnUse" x1="213.1361" y1="356.9597" x2="324.3059" y2="356.9597">
		<stop  offset="2.066799e-04" style="stop-color:#5F449A"/>
		<stop  offset="1" style="stop-color:#5A3188"/>
	</linearGradient>
	<path class="st1" d="M248.6,376.3c-35.3,0.7-40-3-32.2-22.7c2.5-6.5,6.5-10.9,13.9-12.4c28.3-5.7,56.4-5.2,84,3.7
		c4.2,1.3,9.3,2.9,10,7.4c1,6.2-4.9,8-9.6,10.1C292.6,372.2,269.2,376.3,248.6,376.3z"/>
	<linearGradient id="SVGID_3_" gradientUnits="userSpaceOnUse" x1="225.2168" y1="175.8367" x2="307.0255" y2="175.8367">
		<stop  offset="2.066799e-04" style="stop-color:#5F449A"/>
		<stop  offset="1" style="stop-color:#5A3188"/>
	</linearGradient>
	<path class="st2" d="M303.9,208.5c-0.7,0.9-2.7,3.1-6.2,4.4c-2.9,1.1-5.3,0.8-7.7,0.7c-4.9-0.2-2.9,0.5-15.4,1.1
		c-9.2,0.5-13.7,0.7-16.2,0.4c-9.5-1.3-16.1-5.7-18.9-7.6c-5.1-3.5-15.7-10.8-14.3-16.7c1.4-5.5,12.7-7.4,27.3-8l-9.4-22.2
		c-1.9-0.8-3.2-2.6-3.2-4.7c0-2.8,2.4-5.1,5.5-5.1c3,0,5.5,2.3,5.5,5.1c0,0.7-0.2,1.4-0.4,2l10.4,24.7c1.7,0,3.4,0,5.1,0l9.9-38.1
		c-0.5-0.8-0.8-1.7-0.8-2.6c0-2.8,2.5-5.1,5.5-5.1c3,0,5.5,2.3,5.5,5.1c0,1.9-1,3.5-2.6,4.4l-9.4,36.3c1.4,0,2.7,0,4,0
		c5.1,0,13.6,0.2,21,5.5c2.2,1.6,7.6,5.4,8,11.6C307.3,204.2,304.4,207.9,303.9,208.5z"/>
</g>
</svg>
