<svg xmlns="http://www.w3.org/2000/svg" xmlns:xlink="http://www.w3.org/1999/xlink" viewBox="0 0 4181.53 1196.21"><defs><style>.cls-1{fill:url(#linear-gradient);}.cls-2{fill:url(#linear-gradient-2);}.cls-3{fill:url(#linear-gradient-3);}.cls-4{fill:url(#linear-gradient-4);}.cls-5{fill:url(#linear-gradient-5);}.cls-6{fill:url(#linear-gradient-6);}.cls-7{fill:url(#linear-gradient-7);}.cls-8{fill:url(#linear-gradient-8);}.cls-9{fill:url(#linear-gradient-9);}.cls-10{fill:url(#linear-gradient-10);}.cls-11{fill:url(#linear-gradient-11);}</style><linearGradient id="linear-gradient" x1="1313.58" y1="515.78" x2="1804.05" y2="515.78" gradientUnits="userSpaceOnUse"><stop offset="0" stop-color="#593f92"/><stop offset="1" stop-color="#5a3189"/></linearGradient><linearGradient id="linear-gradient-2" x1="2381.37" y1="672.68" x2="2852.32" y2="672.68" xlink:href="#linear-gradient"/><linearGradient id="linear-gradient-3" x1="3389.49" y1="598.86" x2="3858.21" y2="598.86" xlink:href="#linear-gradient"/><linearGradient id="linear-gradient-4" x1="2883.95" y1="599.13" x2="3354.52" y2="599.13" xlink:href="#linear-gradient"/><linearGradient id="linear-gradient-5" x1="1980.36" y1="582.28" x2="2346.13" y2="582.28" xlink:href="#linear-gradient"/><linearGradient id="linear-gradient-6" x1="3890.44" y1="586.32" x2="4181.53" y2="586.32" xlink:href="#linear-gradient"/><linearGradient id="linear-gradient-7" x1="1837.4" y1="598.53" x2="1946.31" y2="598.53" xlink:href="#linear-gradient"/><linearGradient id="linear-gradient-8" x1="1839.36" y1="251.83" x2="1942.65" y2="251.83" xlink:href="#linear-gradient"/><linearGradient id="linear-gradient-9" y1="598.1" x2="1125.88" y2="598.1" gradientUnits="userSpaceOnUse"><stop offset="0" stop-color="#5f449b"/><stop offset="1" stop-color="#5a3189"/></linearGradient><linearGradient id="linear-gradient-10" x1="468.28" y1="833.62" x2="712.53" y2="833.62" xlink:href="#linear-gradient-9"/><linearGradient id="linear-gradient-11" x1="494.82" y1="410.64" x2="674.57" y2="410.64" xlink:href="#linear-gradient-9"/></defs><g id="Layer_2" data-name="Layer 2"><g id="Layer_1-2" data-name="Layer 1"><path class="cls-1" d="M1502.61,199.2c36.22,0,72.5-1.4,108.65.25,139.9,6.39,228.15,140.84,176.33,270.89-12.36,31-14.82,55.61-.92,87.89C1817.79,630.5,1806.83,701,1756,761.78c-55.28,66.09-129.52,79.07-210.59,68.24-1.63-.22-3.58-.19-4.79-1.07-84.17-61.13-155.29-135.91-219.32-217-15.74-19.93-2.68-46.08,18.87-59.63,25.37-16,51.16-10.62,72.21,10.06,43.43,42.68,85.69,86.55,129.12,129.23,41.13,40.42,89.83,43.17,125.66,8.29,37.32-36.32,38-84.19,1.68-128.33-43.31-52.72-43.26-58.36,1.2-112.11,23.61-28.54,34.27-59,18.73-95.81-15.18-35.95-43.19-54.39-79.78-57.17-41-3.1-82.27-2.08-123.42-1.56-20.5.25-48.09-8-56.93,17.16-9.76,27.8-10.82,59.08,12.84,83.46,44.68,46.06,90,91.55,135,137.27,11.61,11.78,23.31,23.63,26.56,40.73,4.41,23.23-2.45,42.42-22.24,56-20.71,14.16-42.32,11.63-59-4.57q-97.5-94.5-192.58-191.47c-21.75-22.27-14.22-52.95-14.58-80.51-2.36-181.54-.32-164.56,163.35-164.21q12.35,0,24.7,0Z"/><path class="cls-2" d="M2849,417.56c-.33-15.69-1-51.41-23-64.57-15.87-9.47-42.27-6.91-58.29,5.83-12.53,10-11,20-22.39,26.24-16.51,9-37.38-3.78-49.86-7.38-89.49-25.82-174.61-16.5-242,53.56-66.24,69-91.81,150.18-55.69,244.77,35.13,91.86,99.64,143.89,197.95,154.64,43.55,4.76,84.28-7.08,134.32-20.07-24.23,54.41-61.29,75-107.52,81.61-35.33,5-61.34,19.42-56.83,59.46s34,47.66,68.82,46.28c104.4-4.26,202.21-88.1,210.83-200.18C2853,698.39,2854.56,687.73,2849,417.56Zm-230.75,306c-68.72.49-125.95-55.25-126.74-123.58-.9-69.76,52.62-125.16,122.48-126.89,68.92-1.69,125.36,53.31,126.35,123.18C2741.32,666.35,2687,723,2618.24,723.53Z"/><path class="cls-3" d="M3562.19,652c39.44-.4,78.93-.15,118.42-.15v-.2c34.54,0,69.07.35,103.61,0,62.82-.69,81-22.69,71.74-86.41-15-103.11-91.41-181.6-192.79-198-104.3-16.84-203.1,33.55-249.53,127.34-47.41,95.73-23.14,217.87,56.29,283.62,85.87,71,210.83,74.37,297.14,7.48,29.09-22.49,53.66-50,28.34-87.55-25.56-37.81-59-25.52-90.47-4.46-10.9,7.23-22,14.71-33.89,19.82-42.91,18.28-83.79,12.34-121.45-14.07-10.25-7.19-23.73-15.71-19.86-31.17C3533.75,652.13,3549.11,652.18,3562.19,652Zm-37.51-118.57c-2.82-10.16,6-17.94,12.74-25.22,42.8-46.33,131.84-45.69,172.72,1.24,6.49,7.43,14.57,14.61,11.15,25.56-3.91,12.34-15.46,10.06-24.87,10.21-24.63.35-49.21.1-73.78.1v-.3c-22.94,0-45.93.5-68.82-.2C3543,544.56,3528.65,547.88,3524.68,533.46Z"/><path class="cls-4" d="M3044.9,651.73q64.14-.08,128.19-.05c34.53,0,69,.35,103.55-.1,67.44-.89,87.31-26.21,74-93.45-26.71-134.27-148.6-215.23-283-188-119.17,24.18-203.15,148.74-179.72,266.72,27,136.06,145.87,217.71,280.55,191.7,39.24-7.58,74.67-25.12,105.14-51.23,26.66-22.85,39.24-51.09,15-81.91-22.19-28.19-51-25.27-79.27-7-12.39,8-24.18,17.29-37.31,23.88-46.18,23.19-109.26,12.19-141.12-23.44-6.64-7.38-14.91-14.32-10.75-25.46S3034.89,651.78,3044.9,651.73Zm-13.57-142c43-46.92,130.46-48.26,173.42-2.42,6.78,7.18,14.86,14.47,11.59,25.37-3.37,11.39-14.12,12.58-24.08,12.68-26.26.3-52.47.1-78.73.15-22.94.05-45.93.25-68.87,0-9.52-.1-20.86,1.88-24.68-10.51C3016.51,523.85,3024.64,517.11,3031.33,509.77Z"/><path class="cls-5" d="M1981.56,596.05c1.62-59.41-3.69-73.71.37-167.77,2.12-49,5.36-81.93,26.21-91.61,14.06-6.53,37.7-3.2,49,9.62,9.15,10.4,5.48,21.77,14.89,28.21,11.53,7.89,29.48-1.53,35.18-2.71,142.32-29.52,238.32,49.44,238.88,196,.25,65.8-.23,131.6.06,197.4.16,38-12.5,66.54-55.29,65.24-40.34-1.23-50.15-29.78-49.72-65.23.72-60.86.52-121.73.26-182.59-.06-14.71.16-29.91-3.22-44.05-9.92-41.56-35.7-67.84-80-64.83-44.93,3-67.21,33.57-68.72,76.09-2.28,64.07-.78,128.28-1,192.43-.05,13.14.85,26.57-1.51,39.35-5.22,28.34-19.54,49.8-51.66,49.58-16.37-.11-29.11-4.78-38-13.31-12.69-12.23-14.09-29.67-14.72-39.31C1978.42,715.33,1981.37,603,1981.56,596.05Z"/><path class="cls-6" d="M3891.5,602.3c-1.79-67.77-1.05-124.62.24-167.61,1.45-48.4,3.39-72.67,21.68-84.9,22.58-15.1,65.31-8.71,79.57,12.24,7.14,10.48,5.84,22.68,15.29,26.18,4.1,1.52,8.6,2,26.7-6.32,28.87-13.27,59.5-18.91,91-17.75,32.17,1.18,53.73,17.82,55.48,50.92,1.6,30.5-16.93,49.45-45.87,55.3-22.57,4.56-45.52,7-65.84,18.72-41.48,23.94-65.19,58.85-65.58,108-.44,55.87-.35,111.75-1.88,167.59-1,36.12-13.15,66.91-55.91,66.51-16.78-.16-28.72-4.51-37.08-11.88-17.85-15.73-17.93-42.81-17.81-59.21C3891.81,713.87,3891.55,662.34,3891.5,602.3Z"/><path class="cls-7" d="M1838.4,429c.73-31.44,9.25-60.5,48.64-62s57.74,22.48,58.12,58.47c1.23,116.85,1.82,233.74-.06,350.57-.53,32.84-19.7,56.17-57.15,54.06s-50.22-26.58-50.4-60.29c-.29-56-.08-112-.08-168C1837.66,601.81,1837.08,486.55,1838.4,429Z"/><path class="cls-8" d="M1942.65,252.91c-3.08,31.09-18.49,52.42-52.61,50.36-32-1.93-52-21.07-50.61-54.26,1.32-30.34,20.36-48.12,50.82-48.75C1923.87,199.57,1940.72,218.74,1942.65,252.91Z"/><path class="cls-9" d="M1125.33,119.12C1124.78,39.55,1088.86,1,1012.55.75Q558.29-.81,104,.55C44.72.7,13.16,30,4.69,88.85,1.17,113.18.18,138.05.13,162.67q-.3,348.36.2,696.8c.15,79-.89,158.21,3.12,237.09,3.47,67.14,37.81,98.36,104.84,98.56q446.84,1.49,893.66.54c91.72-.3,123.23-35.13,123.43-127.69.39-156.47.1-313,.19-469.47C1125.62,438.71,1126.37,278.91,1125.33,119.12ZM862.47,987.51c-47.17,31.81-99.84,50.14-156.87,53.66-22.94,1.44-46.08.25-69.12.25-97.61,4.06-188.78-20.71-276-63.23-27.6-13.52-40.44-33.05-44.75-64.66-21.9-161.82-61.88-319.73-108.85-476-4.22-14-8.08-32.06-18.39-39.54-48.75-35.38-24.92-65.16,2.68-97.81,137-162.42,356-192.25,527.15-128.33,163.11,60.94,228.91,219.7,159.44,377.71-14.81,33.74-6.29,52.57,14.87,77.64C1000.46,755.08,987.58,903.08,862.47,987.51Z"/><path class="cls-10" d="M546.17,878.85c-77.63,1.73-87.86-7.06-70.85-53.06,5.58-15.08,14.31-25.4,30.46-28.86,62.26-13.32,123.84-12.16,184.46,8.6,9.2,3.16,20.42,6.7,22,17.35,2.19,14.37-10.81,18.77-21,23.56A347.93,347.93,0,0,1,546.17,878.85Z"/><path class="cls-11" d="M667.75,486.8A32,32,0,0,1,654.21,497c-6.43,2.47-11.71,1.92-16.93,1.68-10.84-.48-6.36,1.08-33.83,2.54-20.14,1.08-30.19,1.61-35.56.86-20.84-3-35.41-13.38-41.46-17.79-11.19-8.15-34.5-25.15-31.31-38.91,3-12.88,27.93-17.31,59.89-18.77l-20.54-51.91a12,12,0,1,1,16-6.33L573.26,426c3.67,0,7.36-.09,11.13-.09L606.13,337a11.8,11.8,0,0,1-1.68-6.11,12,12,0,1,1,18.35,10.23L602.08,425.9c3,0,5.95,0,8.9,0,11.19.05,29.94.53,46,12.75,4.92,3.74,16.64,12.64,17.5,27C675.21,477,668.78,485.46,667.75,486.8Z"/></g></g></svg>